# xmcd
#
# Track frame offsets: 
#        150
#        12833
#        29926
#        47452
#        67096
#        81908
#        97971
#        118349
#        134116
#        146506
#        163304
#
# Disc length: 2451 seconds
#
# Revision: 0
# Processed by: cddbd v1.5.2PL0 Copyright (c) Steve Scherf et al.
# Submitted via: ExactAudioCopy v0.99pb3
#
DISCID=a509910b
DTITLE=Jeff Jones Band - Biscuits and Gravy
DYEAR=2006
DGENRE=Blues
TTITLE0=Can't Make You Proud
TTITLE1=Biscuits and Gravy
TTITLE2=Rosalita
TTITLE3=The Mission
TTITLE4=One Last Minute
TTITLE5=What She Is
TTITLE6=Two Photographs
TTITLE7=Keep Dancing
TTITLE8=Bright Blue Eyes
TTITLE9=Love
TTITLE10=Goodbye Kiss
EXTD=
EXTT0=
EXTT1=
EXTT2=
EXTT3=
EXTT4=
EXTT5=
EXTT6=
EXTT7=
EXTT8=
EXTT9=
EXTT10=
PLAYORDER=
